<mxfile host="app.diagrams.net" modified="2022-02-16T08:31:17.830Z" agent="5.0 (Windows NT 10.0; Win64; x64) AppleWebKit/537.36 (KHTML, like Gecko) Chrome/98.0.4758.82 Safari/537.36" etag="9msQzUR__OGT9m_dhXTO" version="16.2.4" type="github">
  <diagram id="9zkUD0QxOd0ls1ChuRQZ" name="Page-1">
    <mxGraphModel dx="1422" dy="737" grid="1" gridSize="10" guides="1" tooltips="1" connect="1" arrows="1" fold="1" page="1" pageScale="1" pageWidth="1100" pageHeight="850" math="0" shadow="0">
      <root>
        <mxCell id="0" />
        <mxCell id="1" parent="0" />
        <mxCell id="xSlTAw7s5DrSGXTG4M5w-1" value="" style="ellipse;html=1;shape=startState;fillColor=#000000;strokeColor=#ff0000;" vertex="1" parent="1">
          <mxGeometry x="490" y="70" width="30" height="30" as="geometry" />
        </mxCell>
        <mxCell id="xSlTAw7s5DrSGXTG4M5w-2" value="" style="edgeStyle=orthogonalEdgeStyle;html=1;verticalAlign=bottom;endArrow=open;endSize=8;strokeColor=#ff0000;rounded=0;" edge="1" source="xSlTAw7s5DrSGXTG4M5w-1" parent="1">
          <mxGeometry relative="1" as="geometry">
            <mxPoint x="505" y="160" as="targetPoint" />
          </mxGeometry>
        </mxCell>
        <mxCell id="xSlTAw7s5DrSGXTG4M5w-3" value="创建订单" style="rounded=1;whiteSpace=wrap;html=1;arcSize=40;fontColor=#000000;fillColor=#ffffc0;strokeColor=#ff0000;" vertex="1" parent="1">
          <mxGeometry x="445" y="160" width="120" height="40" as="geometry" />
        </mxCell>
        <mxCell id="xSlTAw7s5DrSGXTG4M5w-4" value="" style="edgeStyle=orthogonalEdgeStyle;html=1;verticalAlign=bottom;endArrow=open;endSize=8;strokeColor=#ff0000;rounded=0;" edge="1" source="xSlTAw7s5DrSGXTG4M5w-3" parent="1">
          <mxGeometry relative="1" as="geometry">
            <mxPoint x="505" y="260" as="targetPoint" />
          </mxGeometry>
        </mxCell>
      </root>
    </mxGraphModel>
  </diagram>
</mxfile>
